HIERARCHY
ROOT Hips
{
	OFFSET 0.000000 0.000000 0.000000
	CHANNELS 6 Xposition Yposition Zposition Zrotation Yrotation Xrotation 
	JOINT LHipJoint
	{
		OFFSET 0.000000 0.000000 0.000000
		CHANNELS 3 Zrotation Yrotation Xrotation
		JOINT LeftUpLeg
		{
			OFFSET 1.363060 -1.794630 0.839290
			CHANNELS 3 Zrotation Yrotation Xrotation
			JOINT LeftLeg
			{
				OFFSET 2.448110 -6.726130 0.000000
				CHANNELS 3 Zrotation Yrotation Xrotation
				JOINT LeftFoot
				{
					OFFSET 2.562200 -7.039590 0.000000
					CHANNELS 3 Zrotation Yrotation Xrotation
					JOINT LeftToeBase
					{
						OFFSET 0.157640 -0.433110 2.322550
						CHANNELS 3 Zrotation Yrotation Xrotation
						End Site
						{
							OFFSET 0.000000 0.000000 0.000000
						}
					}
				}
			}
		}
	}
	JOINT RHipJoint
	{
		OFFSET 0.000000 0.000000 0.000000
		CHANNELS 3 Zrotation Yrotation Xrotation
		JOINT RightUpLeg
		{
			OFFSET -1.305520 -1.794630 0.839290
			CHANNELS 3 Zrotation Yrotation Xrotation
			JOINT RightLeg
			{
				OFFSET -2.542530 -6.985550 0.000000
				CHANNELS 3 Zrotation Yrotation Xrotation
				JOINT RightFoot
				{
					OFFSET -2.568260 -7.056230 0.000000
					CHANNELS 3 Zrotation Yrotation Xrotation
					JOINT RightToeBase
					{
						OFFSET -0.164730 -0.452590 2.363150
						CHANNELS 3 Zrotation Yrotation Xrotation
						End Site
						{
							OFFSET 0.000000 0.000000 0.000000
						}
					}
				}
			}
		}
	}
	JOINT LowerBack
	{
		OFFSET 0.000000 0.000000 0.000000
		CHANNELS 3 Zrotation Yrotation Xrotation
		JOINT Spine
		{
			OFFSET 0.028270 2.035590 -0.193380
			CHANNELS 3 Zrotation Yrotation Xrotation
			JOINT Spine1
			{
				OFFSET 0.056720 2.048850 -0.042750
				CHANNELS 3 Zrotation Yrotation Xrotation
				JOINT Neck
				{
					OFFSET 0.000000 0.000000 0.000000
					CHANNELS 3 Zrotation Yrotation Xrotation
					JOINT Neck1
					{
						OFFSET -0.054170 1.746240 0.172020
						CHANNELS 3 Zrotation Yrotation Xrotation
						JOINT Head
						{
							OFFSET 0.104070 1.761360 -0.123970
							CHANNELS 3 Zrotation Yrotation Xrotation
							End Site
							{
								OFFSET 0.000000 0.000000 0.000000
							}
						}
					}
				}
				JOINT LeftShoulder
				{
					OFFSET 0.000000 0.000000 0.000000
					CHANNELS 3 Zrotation Yrotation Xrotation
					JOINT LeftArm
					{
						OFFSET 3.362410 1.200890 -0.311210
						CHANNELS 3 Zrotation Yrotation Xrotation
						JOINT LeftForeArm
						{
							OFFSET 4.983000 -0.000000 -0.000000
							CHANNELS 3 Zrotation Yrotation Xrotation
							JOINT LeftHand
							{
								OFFSET 3.483560 -0.000000 -0.000000
								CHANNELS 3 Zrotation Yrotation Xrotation
								JOINT LeftFingerBase
								{
									OFFSET 0.000000 0.000000 0.000000
									CHANNELS 3 Zrotation Yrotation Xrotation
									JOINT LeftHandIndex1
									{
										OFFSET 0.715260 -0.000000 -0.000000
										CHANNELS 3 Zrotation Yrotation Xrotation
										End Site
										{
											OFFSET 0.000000 0.000000 0.000000
										}
									}
								}
								JOINT LThumb
								{
									OFFSET 0.000000 0.000000 0.000000
									CHANNELS 3 Zrotation Yrotation Xrotation
									End Site
									{
										OFFSET 0.000000 0.000000 0.000000
									}
								}
							}
						}
					}
				}
				JOINT RightShoulder
				{
					OFFSET 0.000000 0.000000 0.000000
					CHANNELS 3 Zrotation Yrotation Xrotation
					JOINT RightArm
					{
						OFFSET -3.136600 1.374050 -0.404650
						CHANNELS 3 Zrotation Yrotation Xrotation
						JOINT RightForeArm
						{
							OFFSET -5.241900 -0.000000 -0.000000
							CHANNELS 3 Zrotation Yrotation Xrotation
							JOINT RightHand
							{
								OFFSET -3.444170 -0.000000 -0.000000
								CHANNELS 3 Zrotation Yrotation Xrotation
								JOINT RightFingerBase
								{
									OFFSET 0.000000 0.000000 0.000000
									CHANNELS 3 Zrotation Yrotation Xrotation
									JOINT RightHandIndex1
									{
										OFFSET -0.622530 -0.000000 -0.000000
										CHANNELS 3 Zrotation Yrotation Xrotation
										End Site
										{
											OFFSET 0.000000 0.000000 0.000000
										}
									}
								}
								JOINT RThumb
								{
									OFFSET 0.000000 0.000000 0.000000
									CHANNELS 3 Zrotation Yrotation Xrotation
									End Site
									{
										OFFSET 0.000000 0.000000 0.000000
									}
								}
							}
						}
					}
				}
			}
		}
	}
}
MOTION
Frames: 4
Frame Time: 0.008333
-0.694940 17.555900 -0.192996 -179.467344 -8.013405 -174.237926 0.118801 18.432642 -0.943522 -17.699069 -2.181758 -9.898042 -5.668192 4.395141 23.540427 11.187174 -5.624575 -8.070709 -14.051048 22.039123 -10.403196 0.087832 -20.612357 3.774738 19.679780 2.902410 -7.931580 -2.396069 0.519282 17.258900 -26.544799 9.100663 -13.484052 5.226359 -3.486882 -6.593625 0.246931 -2.180172 1.929446 -8.725058 -2.475632 17.490764 10.125887 10.651821 -28.011898 1.976351 -7.989376 -16.782233 1.881931 -8.314951 3.474492 -3.278263 -1.889752 -12.169808 20.043335 41.146530 -7.356011 -48.413974 -35.607950 23.242759 3.727272 -6.328742 13.390553 -0.173804 0.863108 2.913706 -0.869663 8.744123 -0.000000 0.000000 0.000000 0.000000 0.000000 0.000000 0.000000 -9.687686 -28.193071 2.429194 11.379047 5.922610 19.811188 -6.118937 27.091966 -2.672917 -3.275717 -10.447966 -1.068941 -3.085639 -12.809808 0.000000 0.000000 0.000000 0.000000 0.000000 0.000000 0.000000 
-0.694608 17.555300 -0.194032 -179.464642 -8.003188 -174.238193 0.118910 18.423052 -0.947632 -17.701977 -2.191181 -9.894210 -5.652720 4.406288 23.552391 11.150262 -5.597914 -8.087097 -14.072244 22.025027 -10.413205 0.089385 -20.614691 3.775686 19.682064 2.907780 -7.936085 -2.401136 0.518754 17.275490 -26.550122 9.105653 -13.497124 5.223992 -3.485414 -6.591421 0.241744 -2.172586 1.932184 -8.726491 -2.467731 17.504551 10.124271 10.659313 -28.014599 1.978294 -7.967492 -16.781736 1.897289 -8.295698 3.492655 -3.273950 -1.895448 -12.159686 20.033797 41.142346 -7.348337 -48.395364 -35.641783 23.259784 3.740684 -6.347915 13.416996 -0.121061 0.816120 2.964422 -0.823070 8.735031 -0.000000 0.000000 0.000000 0.000000 0.000000 0.000000 0.000000 -9.684454 -28.195102 2.418726 11.400190 5.946180 19.820310 -6.112096 27.099793 -2.674430 -3.279952 -10.432840 -1.071710 -3.090387 -12.806167 0.000000 0.000000 0.000000 0.000000 0.000000 0.000000 0.000000 
-0.694260 17.554700 -0.194946 -179.459531 -7.989257 -174.237185 0.118397 18.409711 -0.953459 -17.699131 -2.198166 -9.889607 -5.641798 4.417650 23.560311 11.132558 -5.574682 -8.112257 -14.076749 22.018535 -10.410336 0.090911 -20.620945 3.776791 19.687603 2.912642 -7.942148 -2.406478 0.522041 17.291015 -26.553769 9.116322 -13.511673 5.225778 -3.484492 -6.597479 0.234918 -2.161029 1.938445 -8.719170 -2.456379 17.517308 10.119784 10.664293 -28.023164 1.978262 -7.945638 -16.778432 1.911570 -8.276301 3.502862 -3.269761 -1.899568 -12.153961 20.028799 41.134141 -7.356847 -48.390063 -35.657606 23.247551 3.736223 -6.355190 13.399397 -0.133965 0.834488 2.946762 -0.833778 8.737553 -0.000000 0.000000 0.000000 0.000000 0.000000 0.000000 0.000000 -9.685893 -28.196361 2.415081 11.423411 5.960280 19.827671 -6.109456 27.110637 -2.666105 -3.275911 -10.432714 -1.071944 -3.085803 -12.803366 0.000000 0.000000 0.000000 0.000000 0.000000 0.000000 0.000000 
-0.693885 17.554100 -0.195891 -179.456190 -7.969259 -174.236394 0.118361 18.400979 -0.958270 -17.699800 -2.203207 -9.884621 -5.629012 4.429714 23.569031 11.107923 -5.548506 -8.130525 -14.093838 22.008483 -10.426304 0.092194 -20.626843 3.777262 19.689760 2.911186 -7.946002 -2.405598 0.526575 17.298298 -26.566670 9.131930 -13.522746 5.223030 -3.481068 -6.598706 0.229074 -2.153711 1.943898 -8.718949 -2.449380 17.526540 10.126397 10.673879 -28.025610 1.974700 -7.923627 -16.773711 1.921674 -8.255861 3.511722 -3.265996 -1.899379 -12.148618 20.033101 41.131317 -7.355649 -48.396552 -35.657607 23.245218 3.734977 -6.356581 13.409263 -0.137578 0.829285 2.949430 -0.837539 8.736209 -0.000000 0.000000 0.000000 0.000000 0.000000 0.000000 0.000000 -9.681997 -28.205057 2.405370 11.429534 6.007168 19.861601 -6.102962 27.116577 -2.647153 -3.271179 -10.398772 -1.062537 -3.078218 -12.794790 0.000000 0.000000 0.000000 0.000000 0.000000 0.000000 0.000000 
